Trimmed_running_0600000001_forces_filt50Hz.mot
version=1
nRows=48
nColumns=19
inDegrees=yes
endheader
time	R_ground_force_vx	R_ground_force_vy	R_ground_force_vz	R_ground_force_px	R_ground_force_py	R_ground_force_pz	R_ground_torque_x	R_ground_torque_y	R_ground_torque_z	L_ground_force_vx	L_ground_force_vy	L_ground_force_vz	L_ground_force_px	L_ground_force_py	L_ground_force_pz	L_ground_torque_x	L_ground_torque_y	L_ground_torque_z	
0.000000	  0.000000	  0.000000	  0.000000	  1.339583	  0.000000	 -0.204009	  0.000000	  0.000000	  0.000000	  0.000000	  0.000000	  0.000000	  0.508302	  0.000000	 -0.356182	  0.000000	  0.000000	  0.000000
0.000500	  0.000000	  0.000000	  0.000000	  1.341701	 -0.000000	 -0.204190	  0.000000	  0.000000	  0.000000	  0.000000	  0.000000	  0.000000	  0.506607	 -0.000000	 -0.356257	  0.000000	  0.000000	  0.000000
0.001000	  0.000000	  0.000000	  0.000000	  1.343818	 -0.000000	 -0.204371	  0.000000	  0.000000	  0.000000	  0.000000	  0.000000	  0.000000	  0.504912	 -0.000000	 -0.356331	  0.000000	  0.000000	  0.000000
0.001500	  0.000000	  0.000000	  0.000000	  1.345935	 -0.000000	 -0.204552	  0.000000	  0.000000	  0.000000	  0.000000	  0.000000	  0.000000	  0.503217	 -0.000000	 -0.356405	  0.000000	  0.000000	  0.000000
0.002000	  0.000000	  0.000000	  0.000000	  1.348052	 -0.000000	 -0.204733	  0.000000	  0.000000	  0.000000	  0.000000	  0.000000	  0.000000	  0.501523	 -0.000000	 -0.356479	  0.000000	  0.000000	  0.000000
0.002500	  0.000000	  0.000000	  0.000000	  1.350170	  0.000000	 -0.204914	  0.000000	  0.000000	  0.000000	  0.000000	  0.000000	  0.000000	  0.499828	  0.000000	 -0.356554	  0.000000	  0.000000	  0.000000
0.003000	  0.000000	  0.000000	  0.000000	  1.352287	  0.000000	 -0.205094	  0.000000	  0.000000	  0.000000	  0.000000	  0.000000	  0.000000	  0.498133	  0.000000	 -0.356628	  0.000000	  0.000000	  0.000000
0.003500	  0.000000	  0.000000	  0.000000	  1.354404	  0.000000	 -0.205275	  0.000000	  0.000000	  0.000000	  0.000000	  0.000000	  0.000000	  0.496438	  0.000000	 -0.356702	  0.000000	  0.000000	  0.000000
0.004000	  0.000000	  0.000000	  0.000000	  1.356521	  0.000000	 -0.205456	  0.000000	  0.000000	  0.000000	  0.000000	  0.000000	  0.000000	  0.494743	  0.000000	 -0.356776	  0.000000	  0.000000	  0.000000
0.004500	  0.000000	  0.000000	  0.000000	  1.358639	  0.000000	 -0.205637	  0.000000	  0.000000	  0.000000	  0.000000	  0.000000	  0.000000	  0.493048	  0.000000	 -0.356851	  0.000000	  0.000000	  0.000000
0.005000	  0.000000	  0.000000	  0.000000	  1.360756	  0.000000	 -0.205818	  0.000000	  0.000000	  0.000000	  0.000000	  0.000000	  0.000000	  0.491353	  0.000000	 -0.356925	  0.000000	  0.000000	  0.000000
0.005500	  0.000000	  0.000000	  0.000000	  1.362732	  0.000000	 -0.206013	  0.000000	  0.000000	  0.000000	  0.000000	  0.000000	  0.000000	  0.489724	  0.000000	 -0.357002	  0.000000	  0.000000	  0.000000
0.006000	  0.000000	  0.000000	  0.000000	  1.364709	  0.000000	 -0.206209	  0.000000	  0.000000	  0.000000	  0.000000	  0.000000	  0.000000	  0.488095	  0.000000	 -0.357079	  0.000000	  0.000000	  0.000000
0.006500	  0.000000	  0.000000	  0.000000	  1.366686	  0.000000	 -0.206405	  0.000000	  0.000000	  0.000000	  0.000000	  0.000000	  0.000000	  0.486466	  0.000000	 -0.357157	  0.000000	  0.000000	  0.000000
0.007000	  0.000000	  0.000000	  0.000000	  1.368662	  0.000000	 -0.206601	  0.000000	  0.000000	  0.000000	  0.000000	  0.000000	  0.000000	  0.484836	  0.000000	 -0.357234	  0.000000	  0.000000	  0.000000
0.007500	  0.000000	  0.000000	  0.000000	  1.370639	  0.000000	 -0.206796	  0.000000	  0.000000	  0.000000	  0.000000	  0.000000	  0.000000	  0.483207	  0.000000	 -0.357311	  0.000000	  0.000000	  0.000000
0.008000	  0.000000	  0.000000	  0.000000	  1.372615	  0.000000	 -0.206992	  0.000000	  0.000000	  0.000000	  0.000000	  0.000000	  0.000000	  0.481578	  0.000000	 -0.357388	  0.000000	  0.000000	  0.000000
0.008500	  0.000000	  0.000000	  0.000000	  1.374592	  0.000000	 -0.207188	  0.000000	  0.000000	  0.000000	  0.000000	  0.000000	  0.000000	  0.479948	  0.000000	 -0.357465	  0.000000	  0.000000	  0.000000
0.009000	  0.000000	  0.000000	  0.000000	  1.376569	  0.000000	 -0.207384	  0.000000	  0.000000	  0.000000	  0.000000	  0.000000	  0.000000	  0.478319	  0.000000	 -0.357542	  0.000000	  0.000000	  0.000000
0.009500	  0.000000	  0.000000	  0.000000	  1.378545	  0.000000	 -0.207580	  0.000000	  0.000000	  0.000000	  0.000000	  0.000000	  0.000000	  0.476690	  0.000000	 -0.357620	  0.000000	  0.000000	  0.000000
0.010000	  0.000000	  0.000000	  0.000000	  1.380522	  0.000000	 -0.207775	  0.000000	  0.000000	  0.000000	  0.000000	  0.000000	  0.000000	  0.475060	  0.000000	 -0.357697	  0.000000	  0.000000	  0.000000
0.010500	  0.000000	  0.000000	  0.000000	  1.382359	  0.000000	 -0.208009	  0.000000	  0.000000	  0.000000	  0.000000	  0.000000	  0.000000	  0.473608	  0.000000	 -0.357777	  0.000000	  0.000000	  0.000000
0.011000	  0.000000	  0.000000	  0.000000	  1.384195	  0.000000	 -0.208243	  0.000000	  0.000000	  0.000000	  0.000000	  0.000000	  0.000000	  0.472156	  0.000000	 -0.357857	  0.000000	  0.000000	  0.000000
0.011500	  0.000000	  0.000000	  0.000000	  1.386032	  0.000000	 -0.208476	  0.000000	  0.000000	  0.000000	  0.000000	  0.000000	  0.000000	  0.470704	  0.000000	 -0.357937	  0.000000	  0.000000	  0.000000
0.012000	  0.000000	  0.000000	  0.000000	  1.387869	  0.000000	 -0.208710	  0.000000	  0.000000	  0.000000	  0.000000	  0.000000	  0.000000	  0.469252	  0.000000	 -0.358017	  0.000000	  0.000000	  0.000000
0.012500	  0.000000	  0.000000	  0.000000	  1.389706	  0.000000	 -0.208944	  0.000000	  0.000000	  0.000000	  0.000000	  0.000000	  0.000000	  0.467800	  0.000000	 -0.358096	  0.000000	  0.000000	  0.000000
0.013000	  0.000000	  0.000000	  0.000000	  1.391543	  0.000000	 -0.209177	  0.000000	  0.000000	  0.000000	  0.000000	  0.000000	  0.000000	  0.466348	  0.000000	 -0.358176	  0.000000	  0.000000	  0.000000
0.013500	  0.000000	  0.000000	  0.000000	  1.393380	  0.000000	 -0.209411	  0.000000	  0.000000	  0.000000	  0.000000	  0.000000	  0.000000	  0.464896	  0.000000	 -0.358256	  0.000000	  0.000000	  0.000000
0.014000	  0.000000	  0.000000	  0.000000	  1.395216	  0.000000	 -0.209645	  0.000000	  0.000000	  0.000000	  0.000000	  0.000000	  0.000000	  0.463444	  0.000000	 -0.358336	  0.000000	  0.000000	  0.000000
0.014500	  0.000000	  0.000000	  0.000000	  1.397053	  0.000000	 -0.209878	  0.000000	  0.000000	  0.000000	  0.000000	  0.000000	  0.000000	  0.461992	  0.000000	 -0.358416	  0.000000	  0.000000	  0.000000
0.015000	  0.000000	  0.000000	  0.000000	  1.398890	  0.000000	 -0.210112	  0.000000	  0.000000	  0.000000	  0.000000	  0.000000	  0.000000	  0.460540	  0.000000	 -0.358496	  0.000000	  0.000000	  0.000000
0.015500	  0.000000	  0.000000	  0.000000	  1.400485	  0.000000	 -0.210317	  0.000000	  0.000000	  0.000000	  0.000000	  0.000000	  0.000000	  0.459220	  0.000000	 -0.358551	  0.000000	  0.000000	  0.000000
0.016000	  0.000000	  0.000000	  0.000000	  1.402080	  0.000000	 -0.210522	  0.000000	  0.000000	  0.000000	  0.000000	  0.000000	  0.000000	  0.457900	  0.000000	 -0.358605	  0.000000	  0.000000	  0.000000
0.016500	  0.000000	  0.000000	  0.000000	  1.403675	  0.000000	 -0.210728	  0.000000	  0.000000	  0.000000	  0.000000	  0.000000	  0.000000	  0.456580	  0.000000	 -0.358660	  0.000000	  0.000000	  0.000000
0.017000	  0.000000	  0.000000	  0.000000	  1.405270	  0.000000	 -0.210933	  0.000000	  0.000000	  0.000000	  0.000000	  0.000000	  0.000000	  0.455259	  0.000000	 -0.358715	  0.000000	  0.000000	  0.000000
0.017500	  0.000000	  0.000000	  0.000000	  1.406865	  0.000000	 -0.211138	  0.000000	  0.000000	  0.000000	  0.000000	  0.000000	  0.000000	  0.453939	  0.000000	 -0.358769	  0.000000	  0.000000	  0.000000
0.018000	  0.000000	  0.000000	  0.000000	  1.408460	  0.000000	 -0.211344	  0.000000	  0.000000	  0.000000	  0.000000	  0.000000	  0.000000	  0.452619	  0.000000	 -0.358824	  0.000000	  0.000000	  0.000000
0.018500	  0.000000	  0.000000	  0.000000	  1.410055	  0.000000	 -0.211549	  0.000000	  0.000000	  0.000000	  0.000000	  0.000000	  0.000000	  0.451299	  0.000000	 -0.358878	  0.000000	  0.000000	  0.000000
0.019000	  0.000000	  0.000000	  0.000000	  1.411651	  0.000000	 -0.211754	  0.000000	  0.000000	  0.000000	  0.000000	  0.000000	  0.000000	  0.449978	  0.000000	 -0.358933	  0.000000	  0.000000	  0.000000
0.019500	  0.000000	  0.000000	  0.000000	  1.413246	  0.000000	 -0.211959	  0.000000	  0.000000	  0.000000	  0.000000	  0.000000	  0.000000	  0.448658	  0.000000	 -0.358988	  0.000000	  0.000000	  0.000000
0.020000	  0.000000	  0.000000	  0.000000	  1.414841	  0.000000	 -0.212165	  0.000000	  0.000000	  0.000000	  0.000000	  0.000000	  0.000000	  0.447338	  0.000000	 -0.359042	  0.000000	  0.000000	  0.000000
0.020500	  0.000000	  0.000000	  0.000000	  1.416210	  0.000000	 -0.212394	  0.000000	  0.000000	  0.000000	  0.000000	  0.000000	  0.000000	  0.446179	  0.000000	 -0.359118	  0.000000	  0.000000	  0.000000
0.021000	  0.000000	  0.000000	  0.000000	  1.417579	  0.000000	 -0.212624	  0.000000	  0.000000	  0.000000	  0.000000	  0.000000	  0.000000	  0.445020	  0.000000	 -0.359194	  0.000000	  0.000000	  0.000000
0.021500	  0.000000	  0.000000	  0.000000	  1.418949	  0.000000	 -0.212854	  0.000000	  0.000000	  0.000000	  0.000000	  0.000000	  0.000000	  0.443861	  0.000000	 -0.359270	  0.000000	  0.000000	  0.000000
0.022000	  0.000000	  0.000000	  0.000000	  1.420318	  0.000000	 -0.213084	  0.000000	  0.000000	  0.000000	  0.000000	  0.000000	  0.000000	  0.442702	  0.000000	 -0.359346	  0.000000	  0.000000	  0.000000
0.022500	  0.000000	  0.000000	  0.000000	  1.421688	  0.000000	 -0.213314	  0.000000	  0.000000	  0.000000	  0.000000	  0.000000	  0.000000	  0.441543	  0.000000	 -0.359422	  0.000000	  0.000000	  0.000000
0.023000	  0.000000	  0.000000	  0.000000	  1.423057	  0.000000	 -0.213544	  0.000000	  0.000000	  0.000000	  0.000000	  0.000000	  0.000000	  0.440384	  0.000000	 -0.359498	  0.000000	  0.000000	  0.000000
0.023500	  0.000000	  0.000000	  0.000000	  1.424426	  0.000000	 -0.213773	  0.000000	  0.000000	  0.000000	  0.000000	  0.000000	  0.000000	  0.439224	  0.000000	 -0.359574	  0.000000	  0.000000	  0.000000
